<svg id="Fill_out_line" height="512" viewBox="0 0 512 512" width="512" xmlns="http://www.w3.org/2000/svg" data-name="Fill out line"><path d="m276.53 446.91 4.28 39.77a229.93706 229.93706 0 0 0 42.04-8.46l-11.52-38.31a191.42161 191.42161 0 0 1 -34.8 7z" fill="#2d80b3"/><path d="m192.60986 479.23a230.11769 230.11769 0 0 0 42.18014 7.81l3.6499-39.83a192.31768 192.31768 0 0 1 -34.8999-6.46z" fill="#379ec3"/><path d="m410.29 370.29-34.29-34.29v96h96l-33.16992-33.17a232.06529 232.06529 0 0 0 -79.43994-350.57l-17.82007 35.82a192.06183 192.06183 0 0 1 68.72 286.21z" fill="#e44042"/><path d="m24 256a231.987 231.987 0 0 0 128.60986 207.74l17.82007-35.82a192.06183 192.06183 0 0 1 -68.72-286.21l34.29007 34.29v-96h-96l33.16992 33.17a230.98265 230.98265 0 0 0 -49.16992 142.83z" fill="#8acce7"/><path d="m189.1499 33.78 11.52 38.31a191.42671 191.42671 0 0 1 34.80005-7l-4.28-39.77a229.93194 229.93194 0 0 0 -42.04005 8.46z" fill="#bf2226"/><path d="m273.56006 64.79a192.32292 192.32292 0 0 1 34.89994 6.46l10.93018-38.48a230.11769 230.11769 0 0 0 -42.18018-7.81z" fill="#d1393b"/><path d="m192 384h128a24 24 0 0 0 24-24v-184l-48-48h-104a24 24 0 0 0 -24 24v208a24 24 0 0 0 24 24z" fill="#eedc9a"/><path d="m296 128v48h48z" fill="#eebe33"/><path d="m16 256a239.98553 239.98553 0 0 0 133.04053 214.89941 8.00046 8.00046 0 0 0 10.73193-3.5957l17.81983-35.82031a7.9999 7.9999 0 0 0 -3.59278-10.72266 183.997 183.997 0 0 1 -101.99951-164.76074 182.40958 182.40958 0 0 1 30.7749-101.91113l27.56836 27.56836a8.00038 8.00038 0 0 0 13.65674-5.65723v-96a8.00008 8.00008 0 0 0 -8-8h-96a8.0001 8.0001 0 0 0 -5.65674 13.65723l28.23389 28.23339a237.462 237.462 0 0 0 -46.57715 142.10938zm16 0a221.74014 221.74014 0 0 1 47.4707-137.90039 8.00059 8.00059 0 0 0 -.644-10.58691l-19.51322-19.5127h68.68652v68.68652l-20.6333-20.63379a7.99987 7.99987 0 0 0 -12.08154.89063 200.097 200.097 0 0 0 -8.49268 225.72564 200.63449 200.63449 0 0 0 72.98584 68.70117l-10.70117 21.50976a223.96573 223.96573 0 0 1 -117.07715-196.87993z"/><path d="m368 336v96a8.00008 8.00008 0 0 0 8 8h96a8.0001 8.0001 0 0 0 5.65674-13.65723l-28.23389-28.23339a240.13378 240.13378 0 0 0 9.62549-270.11622 240.69753 240.69753 0 0 0 -96.08887-86.89257 7.99825 7.99825 0 0 0 -10.73193 3.5957l-17.82031 35.82031a7.99989 7.99989 0 0 0 3.59277 10.72266 183.99625 183.99625 0 0 1 102 164.76074 182.40958 182.40958 0 0 1 -30.7749 101.91113l-27.56836-27.56836a8.00038 8.00038 0 0 0 -13.65674 5.65723zm16 19.31348 20.6333 20.63379a7.99987 7.99987 0 0 0 12.08154-.89063 200.09575 200.09575 0 0 0 8.49216-225.72559 200.61981 200.61981 0 0 0 -72.98584-68.70019l10.70166-21.51074a223.96573 223.96573 0 0 1 117.07718 196.87988 221.74014 221.74014 0 0 1 -47.4707 137.90039 8.00059 8.00059 0 0 0 .644 10.58691l19.51322 19.5127h-68.68652z"/><path d="m270.30371 441.88672a8.00162 8.00162 0 0 0 -1.728 5.87988l4.28028 39.76953a8.0019 8.0019 0 0 0 7.94433 7.14453 7.83386 7.83386 0 0 0 .85157-.04589 238.45249 238.45249 0 0 0 43.50293-8.75391 8.001 8.001 0 0 0 5.35644-9.96484l-11.52-38.30957a8.00452 8.00452 0 0 0 -9.95947-5.35938 184.05407 184.05407 0 0 1 -33.34717 6.708 8.00188 8.00188 0 0 0 -5.38091 2.93165zm15.02 11.97168a200.34292 200.34292 0 0 0 20.60059-4.14356l6.91894 23.00879a222.96106 222.96106 0 0 1 -24.94922 5.01758z"/><path d="m184.91406 477.04492a7.99887 7.99887 0 0 0 5.51026 9.88086 238.84772 238.84772 0 0 0 43.6455 8.082c.24512.02149.48829.03321.7295.03321a8.00158 8.00158 0 0 0 7.95752-7.27051l3.6499-39.83008a7.9994 7.9994 0 0 0 -7.24219-8.69727 184.99166 184.99166 0 0 1 -33.44873-6.1914 8.00071 8.00071 0 0 0 -9.87158 5.51269zm17.61719-3.46582 6.56543-23.1123a201.21079 201.21079 0 0 0 20.66064 3.82519l-2.19189 23.91895a223.01393 223.01393 0 0 1 -25.03418-4.63184z"/><path d="m241.6958 70.11328a8.00037 8.00037 0 0 0 1.728-5.87988l-4.2798-39.76953a7.98552 7.98552 0 0 0 -8.7959-7.09864 238.43585 238.43585 0 0 0 -43.50293 8.75391 8.001 8.001 0 0 0 -5.35644 9.96484l11.52 38.30957a7.99331 7.99331 0 0 0 9.95947 5.35938 184.06575 184.06575 0 0 1 33.34668-6.708 8.00188 8.00188 0 0 0 5.38092-2.93165zm-15.02-11.97168a200.33375 200.33375 0 0 0 -20.6001 4.14356l-6.91894-23.00879a222.95262 222.95262 0 0 1 24.94873-5.01758z"/><path d="m327.08594 34.95508a7.99887 7.99887 0 0 0 -5.51026-9.88086 238.86314 238.86314 0 0 0 -43.6455-8.082 8.01128 8.01128 0 0 0 -8.687 7.2373l-3.6499 39.83008a7.9994 7.9994 0 0 0 7.24219 8.69727 184.99166 184.99166 0 0 1 33.44873 6.1914 7.991 7.991 0 0 0 9.87158-5.51269zm-17.61719 3.46582-6.56543 23.1123a201.21079 201.21079 0 0 0 -20.66064-3.8252l2.19189-23.919a223.03441 223.03441 0 0 1 25.03418 4.6319z"/><path d="m320 392a32.03635 32.03635 0 0 0 32-32v-184a8.00076 8.00076 0 0 0 -2.34326-5.65723l-48-48a8.00035 8.00035 0 0 0 -5.65674-2.34277h-104a32.03635 32.03635 0 0 0 -32 32v208a32.03635 32.03635 0 0 0 32 32zm-16-244.68652 20.68652 20.68652h-20.68652zm-128 212.68652v-208a16.01833 16.01833 0 0 1 16-16h96v40a8.00008 8.00008 0 0 0 8 8h40v176a16.01833 16.01833 0 0 1 -16 16h-128a16.01833 16.01833 0 0 1 -16-16z"/><path d="m192 152h32v16h-32z"/><path d="m208 200h80v16h-80z"/><path d="m304 200h16v16h-16z"/><path d="m288 264h32v16h-32z"/><path d="m192 264h80v16h-80z"/><path d="m256 232h64v16h-64z"/><path d="m192 232h48v16h-48z"/><path d="m192 296h64v16h-64z"/><path d="m272.798 296h31.202v16h-31.202z"/><path d="m280.798 328h31.202v16h-31.202z"/></svg>